<?xml version="1.0" encoding="UTF-8"?><svg xmlns="http://www.w3.org/2000/svg" xmlns:xlink="http://www.w3.org/1999/xlink" fill-opacity="1" color-rendering="auto" color-interpolation="auto" text-rendering="auto" stroke="black" stroke-linecap="square" width="349" stroke-miterlimit="10" shape-rendering="auto" stroke-opacity="1" fill="black" stroke-dasharray="none" font-weight="normal" stroke-width="1" height="543" font-family="'Dialog'" font-style="normal" stroke-linejoin="miter" font-size="12px" stroke-dashoffset="0" image-rendering="auto">
  <!--Generated by ySVG 2.6-->
  <defs id="genericDefs"/>
  <g>
    <defs id="defs1">
      <clipPath clipPathUnits="userSpaceOnUse" id="clipPath1">
        <path d="M0 0 L349 0 L349 543 L0 543 L0 0 Z"/>
      </clipPath>
      <clipPath clipPathUnits="userSpaceOnUse" id="clipPath2">
        <path d="M305 -105 L654 -105 L654 438 L305 438 L305 -105 Z"/>
      </clipPath>
    </defs>
    <g fill="white" text-rendering="geometricPrecision" shape-rendering="geometricPrecision" transform="translate(-305,105)" stroke="white">
      <rect x="305" width="349" height="543" y="-105" clip-path="url(#clipPath2)" stroke="none"/>
    </g>
    <g fill="rgb(204,255,255)" text-rendering="geometricPrecision" shape-rendering="geometricPrecision" transform="matrix(1,0,0,1,-305,105)" stroke="rgb(204,255,255)">
      <rect x="321.2117" y="256" clip-path="url(#clipPath2)" width="317.2883" rx="4" ry="4" height="166.7958" stroke="none"/>
    </g>
    <g text-rendering="geometricPrecision" stroke-miterlimit="1.45" shape-rendering="geometricPrecision" font-family="sans-serif" transform="matrix(1,0,0,1,-305,105)" stroke-linecap="butt">
      <text x="401.4633" xml:space="preserve" y="414.2645" clip-path="url(#clipPath2)" stroke="none">transpilation infrastructure</text>
    </g>
    <g fill="white" text-rendering="geometricPrecision" shape-rendering="geometricPrecision" transform="matrix(1,0,0,1,-305,105)" stroke="white">
      <rect x="335.5" y="185.8398" clip-path="url(#clipPath2)" width="285.5" rx="4" ry="4" height="61.8398" stroke="none"/>
    </g>
    <g text-rendering="geometricPrecision" stroke-miterlimit="1.45" shape-rendering="geometricPrecision" transform="matrix(1,0,0,1,-305,105)" stroke-linecap="butt">
      <rect x="335.5" y="185.8398" clip-path="url(#clipPath2)" fill="none" width="285.5" rx="4" ry="4" height="61.8398"/>
      <text x="393.9766" font-size="14px" y="213.8066" clip-path="url(#clipPath2)" font-family="sans-serif" stroke="none" font-weight="bold" xml:space="preserve">&lt;&lt;software product&gt;&gt;</text>
      <text x="461.2729" font-size="14px" y="230.2948" clip-path="url(#clipPath2)" font-family="sans-serif" stroke="none" font-weight="bold" xml:space="preserve">scafi</text>
    </g>
    <g fill="rgb(204,255,204)" text-rendering="geometricPrecision" shape-rendering="geometricPrecision" transform="matrix(1,0,0,1,-305,105)" stroke="rgb(204,255,204)">
      <rect x="320.5" y="-1.2111" clip-path="url(#clipPath2)" width="318" rx="4" ry="4" height="182" stroke="none"/>
    </g>
    <g text-rendering="geometricPrecision" stroke-miterlimit="1.45" shape-rendering="geometricPrecision" font-family="sans-serif" transform="matrix(1,0,0,1,-305,105)" stroke-linecap="butt">
      <text x="404.0029" xml:space="preserve" y="172.2577" clip-path="url(#clipPath2)" stroke="none">abstraction      layer</text>
    </g>
    <g fill="white" text-rendering="geometricPrecision" shape-rendering="geometricPrecision" transform="matrix(1,0,0,1,-305,105)" stroke="white">
      <rect x="335.5" y="117" clip-path="url(#clipPath2)" width="285.5" rx="4" ry="4" height="38.8398" stroke="none"/>
    </g>
    <g text-rendering="geometricPrecision" stroke-miterlimit="1.45" shape-rendering="geometricPrecision" transform="matrix(1,0,0,1,-305,105)" stroke-linecap="butt">
      <rect x="335.5" y="117" clip-path="url(#clipPath2)" fill="none" width="285.5" rx="4" ry="4" height="38.8398"/>
      <text x="353.3745" font-size="14px" y="141.7109" clip-path="url(#clipPath2)" font-family="sans-serif" stroke="none" xml:space="preserve">&lt;&lt;product-to-platform interface&gt;&gt;</text>
    </g>
    <g fill="rgb(255,204,0)" text-rendering="geometricPrecision" shape-rendering="geometricPrecision" transform="matrix(1,0,0,1,-305,105)" stroke="rgb(255,204,0)">
      <rect x="335.5" y="-89.2619" clip-path="url(#clipPath2)" width="93.5" rx="4" ry="4" height="83" stroke="none"/>
    </g>
    <g text-rendering="geometricPrecision" stroke-miterlimit="1.45" shape-rendering="geometricPrecision" transform="matrix(1,0,0,1,-305,105)" stroke-linecap="butt">
      <rect x="335.5" y="-89.2619" clip-path="url(#clipPath2)" fill="none" width="93.5" rx="4" ry="4" height="83"/>
      <text x="369.4668" font-size="14px" y="-50.715" clip-path="url(#clipPath2)" font-family="sans-serif" stroke="none" xml:space="preserve">JVM</text>
      <text x="353.064" font-size="14px" y="-34.2267" clip-path="url(#clipPath2)" font-family="sans-serif" stroke="none" xml:space="preserve">platform</text>
    </g>
    <g fill="rgb(153,204,0)" text-rendering="geometricPrecision" shape-rendering="geometricPrecision" transform="matrix(1,0,0,1,-305,105)" stroke="rgb(153,204,0)">
      <rect x="439" y="-89.2619" clip-path="url(#clipPath2)" width="86" rx="4" ry="4" height="83" stroke="none"/>
    </g>
    <g text-rendering="geometricPrecision" stroke-miterlimit="1.45" shape-rendering="geometricPrecision" transform="matrix(1,0,0,1,-305,105)" stroke-linecap="butt">
      <rect x="439" y="-89.2619" clip-path="url(#clipPath2)" fill="none" width="86" rx="4" ry="4" height="83"/>
      <text x="460.7983" font-size="14px" y="-50.715" clip-path="url(#clipPath2)" font-family="sans-serif" stroke="none" xml:space="preserve">Native</text>
      <text x="452.814" font-size="14px" y="-34.2267" clip-path="url(#clipPath2)" font-family="sans-serif" stroke="none" xml:space="preserve">platform</text>
    </g>
    <g fill="white" text-rendering="geometricPrecision" shape-rendering="geometricPrecision" transform="matrix(1,0,0,1,-305,105)" stroke="white">
      <rect x="335.5" y="5" clip-path="url(#clipPath2)" width="93.5" rx="4" ry="4" height="38.8398" stroke="none"/>
    </g>
    <g text-rendering="geometricPrecision" stroke-miterlimit="1.45" shape-rendering="geometricPrecision" transform="matrix(1,0,0,1,-305,105)" stroke-linecap="butt">
      <rect x="335.5" y="5" clip-path="url(#clipPath2)" fill="none" width="93.5" rx="4" ry="4" height="38.8398"/>
      <text x="338.6538" font-size="14px" y="29.7109" clip-path="url(#clipPath2)" font-family="sans-serif" stroke="none" xml:space="preserve">JVM backend</text>
    </g>
    <g fill="white" text-rendering="geometricPrecision" shape-rendering="geometricPrecision" transform="matrix(1,0,0,1,-305,105)" stroke="white">
      <rect x="439" y="5" clip-path="url(#clipPath2)" width="86" rx="4" ry="4" height="38.8398" stroke="none"/>
    </g>
    <g text-rendering="geometricPrecision" stroke-miterlimit="1.45" shape-rendering="geometricPrecision" transform="matrix(1,0,0,1,-305,105)" stroke-linecap="butt">
      <rect x="439" y="5" clip-path="url(#clipPath2)" fill="none" width="86" rx="4" ry="4" height="38.8398"/>
      <text x="461.6255" font-size="14px" y="21.4668" clip-path="url(#clipPath2)" font-family="sans-serif" stroke="none" xml:space="preserve">native</text>
      <text x="451.187" font-size="14px" y="37.9551" clip-path="url(#clipPath2)" font-family="sans-serif" stroke="none" xml:space="preserve"> backend</text>
    </g>
    <g fill="white" text-rendering="geometricPrecision" shape-rendering="geometricPrecision" transform="matrix(1,0,0,1,-305,105)" stroke="white">
      <rect x="535" y="5" clip-path="url(#clipPath2)" width="86" rx="4" ry="4" height="38.8398" stroke="none"/>
    </g>
    <g text-rendering="geometricPrecision" stroke-miterlimit="1.45" shape-rendering="geometricPrecision" transform="matrix(1,0,0,1,-305,105)" stroke-linecap="butt">
      <rect x="535" y="5" clip-path="url(#clipPath2)" fill="none" width="86" rx="4" ry="4" height="38.8398"/>
      <text x="541.2397" font-size="14px" y="29.7109" clip-path="url(#clipPath2)" font-family="sans-serif" stroke="none" xml:space="preserve">JS backend</text>
    </g>
    <g fill="white" text-rendering="geometricPrecision" shape-rendering="geometricPrecision" transform="matrix(1,0,0,1,-305,105)" stroke="white">
      <rect x="335.5" y="267.5801" clip-path="url(#clipPath2)" width="285.5" rx="4" ry="4" height="38.8398" stroke="none"/>
    </g>
    <g text-rendering="geometricPrecision" stroke-miterlimit="1.45" shape-rendering="geometricPrecision" transform="matrix(1,0,0,1,-305,105)" stroke-linecap="butt">
      <rect x="335.5" y="267.5801" clip-path="url(#clipPath2)" fill="none" width="285.5" rx="4" ry="4" height="38.8398"/>
      <text x="367.8838" font-size="14px" y="284.0469" clip-path="url(#clipPath2)" font-family="sans-serif" stroke="none" xml:space="preserve">&lt;&lt;user-to-product interface&gt;&gt;</text>
      <text x="396.1777" font-size="14px" y="300.5352" clip-path="url(#clipPath2)" font-family="sans-serif" stroke="none" xml:space="preserve">Bindings to the scafi API</text>
    </g>
    <g fill="white" text-rendering="geometricPrecision" shape-rendering="geometricPrecision" transform="matrix(1,0,0,1,-305,105)" stroke="white">
      <rect x="335.5" y="357.5801" clip-path="url(#clipPath2)" width="64.2736" rx="4" ry="4" height="38.8398" stroke="none"/>
    </g>
    <g text-rendering="geometricPrecision" stroke-miterlimit="1.45" shape-rendering="geometricPrecision" transform="matrix(1,0,0,1,-305,105)" stroke-linecap="butt">
      <rect x="335.5" y="357.5801" clip-path="url(#clipPath2)" fill="none" width="64.2736" rx="4" ry="4" height="38.8398"/>
      <text x="342.2891" font-size="14px" y="374.0469" clip-path="url(#clipPath2)" font-family="sans-serif" stroke="none" xml:space="preserve">Python </text>
      <text x="337.9688" font-size="14px" y="390.5352" clip-path="url(#clipPath2)" font-family="sans-serif" stroke="none" xml:space="preserve">Interface</text>
    </g>
    <g fill="white" text-rendering="geometricPrecision" shape-rendering="geometricPrecision" transform="matrix(1,0,0,1,-305,105)" stroke="white">
      <rect x="406.8677" y="357.5801" clip-path="url(#clipPath2)" width="68.6925" rx="4" ry="4" height="38.8398" stroke="none"/>
    </g>
    <g text-rendering="geometricPrecision" stroke-miterlimit="1.45" shape-rendering="geometricPrecision" transform="matrix(1,0,0,1,-305,105)" stroke-linecap="butt">
      <rect x="406.8677" y="357.5801" clip-path="url(#clipPath2)" fill="none" width="68.6925" rx="4" ry="4" height="38.8398"/>
      <text x="423.027" font-size="14px" y="374.0469" clip-path="url(#clipPath2)" font-family="sans-serif" stroke="none" xml:space="preserve">C++ </text>
      <text x="411.546" font-size="14px" y="390.5352" clip-path="url(#clipPath2)" font-family="sans-serif" stroke="none" xml:space="preserve">Interface</text>
    </g>
    <g fill="white" text-rendering="geometricPrecision" shape-rendering="geometricPrecision" transform="matrix(1,0,0,1,-305,105)" stroke="white">
      <rect x="484.8632" y="357.5801" clip-path="url(#clipPath2)" width="64.2736" rx="4" ry="4" height="38.8398" stroke="none"/>
    </g>
    <g text-rendering="geometricPrecision" stroke-miterlimit="1.45" shape-rendering="geometricPrecision" transform="matrix(1,0,0,1,-305,105)" stroke-linecap="butt">
      <rect x="484.8632" y="357.5801" clip-path="url(#clipPath2)" fill="none" width="64.2736" rx="4" ry="4" height="38.8398"/>
      <text x="502.043" font-size="14px" y="374.0469" clip-path="url(#clipPath2)" font-family="sans-serif" stroke="none" xml:space="preserve">Rust</text>
      <text x="487.332" font-size="14px" y="390.5352" clip-path="url(#clipPath2)" font-family="sans-serif" stroke="none" xml:space="preserve">Interface</text>
    </g>
    <g fill="white" text-rendering="geometricPrecision" shape-rendering="geometricPrecision" transform="matrix(1,0,0,1,-305,105)" stroke="white">
      <rect x="556.7264" y="357.5801" clip-path="url(#clipPath2)" width="64.2736" rx="4" ry="4" height="38.8398" stroke="none"/>
    </g>
    <g text-rendering="geometricPrecision" stroke-miterlimit="1.45" shape-rendering="geometricPrecision" transform="matrix(1,0,0,1,-305,105)" stroke-linecap="butt">
      <rect x="556.7264" y="357.5801" clip-path="url(#clipPath2)" fill="none" width="64.2736" rx="4" ry="4" height="38.8398"/>
      <text x="582.2187" font-size="14px" y="374.0469" clip-path="url(#clipPath2)" font-family="sans-serif" stroke="none" xml:space="preserve">...</text>
      <text x="559.1953" font-size="14px" y="390.5352" clip-path="url(#clipPath2)" font-family="sans-serif" stroke="none" xml:space="preserve">Interface</text>
    </g>
    <g fill="rgb(255,153,204)" text-rendering="geometricPrecision" shape-rendering="geometricPrecision" transform="matrix(1,0,0,1,-305,105)" stroke="rgb(255,153,204)">
      <rect x="535" y="-89.2619" clip-path="url(#clipPath2)" width="86" rx="4" ry="4" height="83" stroke="none"/>
    </g>
    <g text-rendering="geometricPrecision" stroke-miterlimit="1.45" shape-rendering="geometricPrecision" transform="matrix(1,0,0,1,-305,105)" stroke-linecap="butt">
      <rect x="535" y="-89.2619" clip-path="url(#clipPath2)" fill="none" width="86" rx="4" ry="4" height="83"/>
      <text x="572.0527" font-size="14px" y="-50.715" clip-path="url(#clipPath2)" font-family="sans-serif" stroke="none" xml:space="preserve">JS</text>
      <text x="548.814" font-size="14px" y="-34.2267" clip-path="url(#clipPath2)" font-family="sans-serif" stroke="none" xml:space="preserve">platform</text>
      <path fill="none" d="M478.25 185.8085 L478.25 163.857" clip-path="url(#clipPath2)"/>
      <path d="M478.25 155.857 L473.25 167.857 L478.25 164.857 L483.25 167.857 Z" clip-path="url(#clipPath2)" stroke="none"/>
      <path fill="none" d="M461.5859 116.9785 L404.0944 49.905" clip-path="url(#clipPath2)"/>
      <path d="M398.8881 43.831 L402.9013 56.196 L404.7452 50.6643 L410.4939 49.6881 Z" clip-path="url(#clipPath2)" stroke="none"/>
      <text x="392.3877" font-size="10px" y="78.3105" clip-path="url(#clipPath2)" font-family="sans-serif" stroke="none" xml:space="preserve">scala </text>
      <text x="397.2705" font-size="10px" y="90.0879" clip-path="url(#clipPath2)" font-family="sans-serif" stroke="none" xml:space="preserve">jvm</text>
      <path fill="none" d="M478.9009 116.9785 L481.0831 51.8039" clip-path="url(#clipPath2)"/>
      <path d="M481.3508 43.8084 L475.9521 55.6344 L481.0497 52.8033 L485.9465 55.969 Z" clip-path="url(#clipPath2)" stroke="none"/>
      <text x="468.0474" font-size="10px" y="78.3105" clip-path="url(#clipPath2)" font-family="sans-serif" stroke="none" xml:space="preserve">scala</text>
      <text x="465.5718" font-size="10px" y="90.0879" clip-path="url(#clipPath2)" font-family="sans-serif" stroke="none" xml:space="preserve">native</text>
      <path fill="none" d="M495.565 116.9785 L555.3913 49.8051" clip-path="url(#clipPath2)"/>
      <path d="M560.712 43.831 L548.9971 49.4667 L554.7262 50.5519 L556.4648 56.1176 Z" clip-path="url(#clipPath2)" stroke="none"/>
      <text x="539.179" font-size="10px" y="85.1025" clip-path="url(#clipPath2)" font-family="sans-serif" stroke="none" xml:space="preserve">scala.js</text>
      <path fill="none" d="M478.25 267.5536 L478.25 255.6626" clip-path="url(#clipPath2)"/>
      <path d="M478.25 247.6626 L473.25 259.6626 L478.25 256.6626 L483.25 259.6626 Z" clip-path="url(#clipPath2)" stroke="none"/>
      <path fill="none" d="M397.6878 352.5491 L454.3762 306.4248" clip-path="url(#clipPath2)"/>
      <path d="M391.4823 357.5981 L403.9461 353.903 L398.4634 351.918 L397.6348 346.1462 Z" clip-path="url(#clipPath2)" stroke="none"/>
      <path fill="none" d="M452.2334 350.222 L470.2611 306.4136" clip-path="url(#clipPath2)"/>
      <path d="M449.189 357.6201 L458.3794 348.4258 L452.614 349.2973 L449.1318 344.6202 Z" clip-path="url(#clipPath2)" stroke="none"/>
      <path fill="none" d="M505.4922 350.2722 L486.6086 306.4136" clip-path="url(#clipPath2)"/>
      <path d="M508.6559 357.6201 L508.5028 344.621 L505.0968 349.3538 L499.318 348.5756 Z" clip-path="url(#clipPath2)" stroke="none"/>
      <path fill="none" d="M558.8122 352.5491 L502.1238 306.4248" clip-path="url(#clipPath2)"/>
      <path d="M565.0176 357.5981 L558.8651 346.1462 L558.0365 351.918 L552.5538 353.903 Z" clip-path="url(#clipPath2)" stroke="none"/>
    </g>
  </g>
</svg>
