<?xml version="1.0" encoding="UTF-8"?><svg xmlns="http://www.w3.org/2000/svg" xmlns:xlink="http://www.w3.org/1999/xlink" fill-opacity="1" color-rendering="auto" color-interpolation="auto" text-rendering="auto" stroke="black" stroke-linecap="square" width="349" stroke-miterlimit="10" shape-rendering="auto" stroke-opacity="1" fill="black" stroke-dasharray="none" font-weight="normal" stroke-width="1" height="543" font-family="'Dialog'" font-style="normal" stroke-linejoin="miter" font-size="12px" stroke-dashoffset="0" image-rendering="auto">
  <!--Generated by ySVG 2.6-->
  <defs id="genericDefs"/>
  <g>
    <defs id="defs1">
      <clipPath clipPathUnits="userSpaceOnUse" id="clipPath1">
        <path d="M0 0 L349 0 L349 543 L0 543 L0 0 Z"/>
      </clipPath>
      <clipPath clipPathUnits="userSpaceOnUse" id="clipPath2">
        <path d="M418 -2 L767 -2 L767 541 L418 541 L418 -2 Z"/>
      </clipPath>
    </defs>
    <g fill="rgb(204,255,255)" text-rendering="geometricPrecision" shape-rendering="geometricPrecision" transform="matrix(1,0,0,1,-418,2)" stroke="rgb(204,255,255)">
      <rect x="434.2117" y="359" clip-path="url(#clipPath2)" width="317.2883" rx="4" ry="4" height="166.7958" stroke="none"/>
    </g>
    <g text-rendering="geometricPrecision" stroke-miterlimit="1.45" shape-rendering="geometricPrecision" font-family="sans-serif" transform="matrix(1,0,0,1,-418,2)" stroke-linecap="butt">
      <text x="514.4633" xml:space="preserve" y="517.2645" clip-path="url(#clipPath2)" stroke="none">transpilation infrastructure</text>
    </g>
    <g fill="white" text-rendering="geometricPrecision" shape-rendering="geometricPrecision" transform="matrix(1,0,0,1,-418,2)" stroke="white">
      <rect x="448.5" y="288.8398" clip-path="url(#clipPath2)" width="285.5" rx="4" ry="4" height="61.8398" stroke="none"/>
    </g>
    <g text-rendering="geometricPrecision" stroke-miterlimit="1.45" shape-rendering="geometricPrecision" transform="matrix(1,0,0,1,-418,2)" stroke-linecap="butt">
      <rect x="448.5" y="288.8398" clip-path="url(#clipPath2)" fill="none" width="285.5" rx="4" ry="4" height="61.8398"/>
      <text x="506.9766" font-size="14px" y="316.8065" clip-path="url(#clipPath2)" font-family="sans-serif" stroke="none" font-weight="bold" xml:space="preserve">&lt;&lt;software product&gt;&gt;</text>
      <text x="574.2729" font-size="14px" y="333.2948" clip-path="url(#clipPath2)" font-family="sans-serif" stroke="none" font-weight="bold" xml:space="preserve">scafi</text>
    </g>
    <g fill="rgb(204,255,204)" text-rendering="geometricPrecision" shape-rendering="geometricPrecision" transform="matrix(1,0,0,1,-418,2)" stroke="rgb(204,255,204)">
      <rect x="433.5" y="101.7889" clip-path="url(#clipPath2)" width="318" rx="4" ry="4" height="182" stroke="none"/>
    </g>
    <g text-rendering="geometricPrecision" stroke-miterlimit="1.45" shape-rendering="geometricPrecision" font-family="sans-serif" transform="matrix(1,0,0,1,-418,2)" stroke-linecap="butt">
      <text x="517.0029" xml:space="preserve" y="275.2577" clip-path="url(#clipPath2)" stroke="none">abstraction      layer</text>
    </g>
    <g fill="white" text-rendering="geometricPrecision" shape-rendering="geometricPrecision" transform="matrix(1,0,0,1,-418,2)" stroke="white">
      <rect x="448.5" y="220" clip-path="url(#clipPath2)" width="285.5" rx="4" ry="4" height="38.8398" stroke="none"/>
    </g>
    <g text-rendering="geometricPrecision" stroke-miterlimit="1.45" shape-rendering="geometricPrecision" transform="matrix(1,0,0,1,-418,2)" stroke-linecap="butt">
      <rect x="448.5" y="220" clip-path="url(#clipPath2)" fill="none" width="285.5" rx="4" ry="4" height="38.8398"/>
      <text x="466.3745" font-size="14px" y="244.7109" clip-path="url(#clipPath2)" font-family="sans-serif" stroke="none" xml:space="preserve">&lt;&lt;product-to-platform interface&gt;&gt;</text>
    </g>
    <g fill="rgb(255,204,0)" text-rendering="geometricPrecision" shape-rendering="geometricPrecision" transform="matrix(1,0,0,1,-418,2)" stroke="rgb(255,204,0)">
      <rect x="448.5" y="13.7381" clip-path="url(#clipPath2)" width="93.5" rx="4" ry="4" height="83" stroke="none"/>
    </g>
    <g text-rendering="geometricPrecision" stroke-miterlimit="1.45" shape-rendering="geometricPrecision" transform="matrix(1,0,0,1,-418,2)" stroke-linecap="butt">
      <rect x="448.5" y="13.7381" clip-path="url(#clipPath2)" fill="none" width="93.5" rx="4" ry="4" height="83"/>
      <text x="482.4668" font-size="14px" y="52.285" clip-path="url(#clipPath2)" font-family="sans-serif" stroke="none" xml:space="preserve">JVM</text>
      <text x="466.064" font-size="14px" y="68.7733" clip-path="url(#clipPath2)" font-family="sans-serif" stroke="none" xml:space="preserve">platform</text>
    </g>
    <g fill="rgb(153,204,0)" text-rendering="geometricPrecision" shape-rendering="geometricPrecision" transform="matrix(1,0,0,1,-418,2)" stroke="rgb(153,204,0)">
      <rect x="552" y="13.7381" clip-path="url(#clipPath2)" width="86" rx="4" ry="4" height="83" stroke="none"/>
    </g>
    <g text-rendering="geometricPrecision" stroke-miterlimit="1.45" shape-rendering="geometricPrecision" transform="matrix(1,0,0,1,-418,2)" stroke-linecap="butt">
      <rect x="552" y="13.7381" clip-path="url(#clipPath2)" fill="none" width="86" rx="4" ry="4" height="83"/>
      <text x="573.7983" font-size="14px" y="52.285" clip-path="url(#clipPath2)" font-family="sans-serif" stroke="none" xml:space="preserve">Native</text>
      <text x="565.814" font-size="14px" y="68.7733" clip-path="url(#clipPath2)" font-family="sans-serif" stroke="none" xml:space="preserve">platform</text>
    </g>
    <g fill="rgb(255,153,204)" text-rendering="geometricPrecision" shape-rendering="geometricPrecision" transform="matrix(1,0,0,1,-418,2)" stroke="rgb(255,153,204)">
      <rect x="648" y="13.7381" clip-path="url(#clipPath2)" width="86" rx="4" ry="4" height="83" stroke="none"/>
    </g>
    <g text-rendering="geometricPrecision" stroke-miterlimit="1.45" shape-rendering="geometricPrecision" transform="matrix(1,0,0,1,-418,2)" stroke-linecap="butt">
      <rect x="648" y="13.7381" clip-path="url(#clipPath2)" fill="none" width="86" rx="4" ry="4" height="83"/>
      <text x="685.0527" font-size="14px" y="52.285" clip-path="url(#clipPath2)" font-family="sans-serif" stroke="none" xml:space="preserve">JS</text>
      <text x="661.814" font-size="14px" y="68.7733" clip-path="url(#clipPath2)" font-family="sans-serif" stroke="none" xml:space="preserve">platform</text>
    </g>
    <g fill="white" text-rendering="geometricPrecision" shape-rendering="geometricPrecision" transform="matrix(1,0,0,1,-418,2)" stroke="white">
      <rect x="448.5" y="108" clip-path="url(#clipPath2)" width="93.5" rx="4" ry="4" height="38.8398" stroke="none"/>
    </g>
    <g text-rendering="geometricPrecision" stroke-miterlimit="1.45" shape-rendering="geometricPrecision" transform="matrix(1,0,0,1,-418,2)" stroke-linecap="butt">
      <rect x="448.5" y="108" clip-path="url(#clipPath2)" fill="none" width="93.5" rx="4" ry="4" height="38.8398"/>
      <text x="451.6538" font-size="14px" y="132.7109" clip-path="url(#clipPath2)" font-family="sans-serif" stroke="none" xml:space="preserve">JVM backend</text>
    </g>
    <g fill="white" text-rendering="geometricPrecision" shape-rendering="geometricPrecision" transform="matrix(1,0,0,1,-418,2)" stroke="white">
      <rect x="552" y="108" clip-path="url(#clipPath2)" width="86" rx="4" ry="4" height="38.8398" stroke="none"/>
    </g>
    <g text-rendering="geometricPrecision" stroke-miterlimit="1.45" shape-rendering="geometricPrecision" transform="matrix(1,0,0,1,-418,2)" stroke-linecap="butt">
      <rect x="552" y="108" clip-path="url(#clipPath2)" fill="none" width="86" rx="4" ry="4" height="38.8398"/>
      <text x="574.6255" font-size="14px" y="124.4668" clip-path="url(#clipPath2)" font-family="sans-serif" stroke="none" xml:space="preserve">native</text>
      <text x="564.187" font-size="14px" y="140.955" clip-path="url(#clipPath2)" font-family="sans-serif" stroke="none" xml:space="preserve"> backend</text>
    </g>
    <g fill="white" text-rendering="geometricPrecision" shape-rendering="geometricPrecision" transform="matrix(1,0,0,1,-418,2)" stroke="white">
      <rect x="648" y="108" clip-path="url(#clipPath2)" width="86" rx="4" ry="4" height="38.8398" stroke="none"/>
    </g>
    <g text-rendering="geometricPrecision" stroke-miterlimit="1.45" shape-rendering="geometricPrecision" transform="matrix(1,0,0,1,-418,2)" stroke-linecap="butt">
      <rect x="648" y="108" clip-path="url(#clipPath2)" fill="none" width="86" rx="4" ry="4" height="38.8398"/>
      <text x="654.2397" font-size="14px" y="132.7109" clip-path="url(#clipPath2)" font-family="sans-serif" stroke="none" xml:space="preserve">JS backend</text>
    </g>
    <g fill="white" text-rendering="geometricPrecision" shape-rendering="geometricPrecision" transform="matrix(1,0,0,1,-418,2)" stroke="white">
      <rect x="448.5" y="370.5801" clip-path="url(#clipPath2)" width="285.5" rx="4" ry="4" height="38.8398" stroke="none"/>
    </g>
    <g text-rendering="geometricPrecision" stroke-miterlimit="1.45" shape-rendering="geometricPrecision" transform="matrix(1,0,0,1,-418,2)" stroke-linecap="butt">
      <rect x="448.5" y="370.5801" clip-path="url(#clipPath2)" fill="none" width="285.5" rx="4" ry="4" height="38.8398"/>
      <text x="480.8838" font-size="14px" y="387.0469" clip-path="url(#clipPath2)" font-family="sans-serif" stroke="none" xml:space="preserve">&lt;&lt;user-to-product interface&gt;&gt;</text>
      <text x="509.1777" font-size="14px" y="403.5352" clip-path="url(#clipPath2)" font-family="sans-serif" stroke="none" xml:space="preserve">Bindings to the scafi API</text>
    </g>
    <g fill="white" text-rendering="geometricPrecision" shape-rendering="geometricPrecision" transform="matrix(1,0,0,1,-418,2)" stroke="white">
      <rect x="448.5" y="460.5801" clip-path="url(#clipPath2)" width="64.2736" rx="4" ry="4" height="38.8398" stroke="none"/>
    </g>
    <g text-rendering="geometricPrecision" stroke-miterlimit="1.45" shape-rendering="geometricPrecision" transform="matrix(1,0,0,1,-418,2)" stroke-linecap="butt">
      <rect x="448.5" y="460.5801" clip-path="url(#clipPath2)" fill="none" width="64.2736" rx="4" ry="4" height="38.8398"/>
      <text x="455.2891" font-size="14px" y="477.0469" clip-path="url(#clipPath2)" font-family="sans-serif" stroke="none" xml:space="preserve">Python </text>
      <text x="450.9688" font-size="14px" y="493.5352" clip-path="url(#clipPath2)" font-family="sans-serif" stroke="none" xml:space="preserve">Interface</text>
    </g>
    <g fill="white" text-rendering="geometricPrecision" shape-rendering="geometricPrecision" transform="matrix(1,0,0,1,-418,2)" stroke="white">
      <rect x="519.8677" y="460.5801" clip-path="url(#clipPath2)" width="68.6925" rx="4" ry="4" height="38.8398" stroke="none"/>
    </g>
    <g text-rendering="geometricPrecision" stroke-miterlimit="1.45" shape-rendering="geometricPrecision" transform="matrix(1,0,0,1,-418,2)" stroke-linecap="butt">
      <rect x="519.8677" y="460.5801" clip-path="url(#clipPath2)" fill="none" width="68.6925" rx="4" ry="4" height="38.8398"/>
      <text x="536.027" font-size="14px" y="477.0469" clip-path="url(#clipPath2)" font-family="sans-serif" stroke="none" xml:space="preserve">C++ </text>
      <text x="524.546" font-size="14px" y="493.5352" clip-path="url(#clipPath2)" font-family="sans-serif" stroke="none" xml:space="preserve">Interface</text>
    </g>
    <g fill="white" text-rendering="geometricPrecision" shape-rendering="geometricPrecision" transform="matrix(1,0,0,1,-418,2)" stroke="white">
      <rect x="597.8632" y="460.5801" clip-path="url(#clipPath2)" width="64.2736" rx="4" ry="4" height="38.8398" stroke="none"/>
    </g>
    <g text-rendering="geometricPrecision" stroke-miterlimit="1.45" shape-rendering="geometricPrecision" transform="matrix(1,0,0,1,-418,2)" stroke-linecap="butt">
      <rect x="597.8632" y="460.5801" clip-path="url(#clipPath2)" fill="none" width="64.2736" rx="4" ry="4" height="38.8398"/>
      <text x="615.043" font-size="14px" y="477.0469" clip-path="url(#clipPath2)" font-family="sans-serif" stroke="none" xml:space="preserve">Rust</text>
      <text x="600.332" font-size="14px" y="493.5352" clip-path="url(#clipPath2)" font-family="sans-serif" stroke="none" xml:space="preserve">Interface</text>
    </g>
    <g fill="white" text-rendering="geometricPrecision" shape-rendering="geometricPrecision" transform="matrix(1,0,0,1,-418,2)" stroke="white">
      <rect x="669.7264" y="460.5801" clip-path="url(#clipPath2)" width="64.2736" rx="4" ry="4" height="38.8398" stroke="none"/>
    </g>
    <g text-rendering="geometricPrecision" stroke-miterlimit="1.45" shape-rendering="geometricPrecision" transform="matrix(1,0,0,1,-418,2)" stroke-linecap="butt">
      <rect x="669.7264" y="460.5801" clip-path="url(#clipPath2)" fill="none" width="64.2736" rx="4" ry="4" height="38.8398"/>
      <text x="695.2187" font-size="14px" y="477.0469" clip-path="url(#clipPath2)" font-family="sans-serif" stroke="none" xml:space="preserve">...</text>
      <text x="672.1953" font-size="14px" y="493.5352" clip-path="url(#clipPath2)" font-family="sans-serif" stroke="none" xml:space="preserve">Interface</text>
      <path fill="none" d="M591.25 288.8085 L591.25 266.857" clip-path="url(#clipPath2)"/>
      <path d="M591.25 258.857 L586.25 270.857 L591.25 267.857 L596.25 270.857 Z" clip-path="url(#clipPath2)" stroke="none"/>
      <path fill="none" d="M569.3796 213.9044 L517.0944 152.905" clip-path="url(#clipPath2)"/>
      <path d="M574.5859 219.9785 L570.5727 207.6134 L568.7288 213.1452 L562.9802 214.1214 Z" clip-path="url(#clipPath2)" stroke="none"/>
      <path d="M511.8881 146.831 L515.9013 159.196 L517.7452 153.6643 L523.4938 152.6881 Z" clip-path="url(#clipPath2)" stroke="none"/>
      <text x="505.3877" font-size="10px" y="181.3105" clip-path="url(#clipPath2)" font-family="sans-serif" stroke="none" xml:space="preserve">scala </text>
      <text x="510.2705" font-size="10px" y="193.0879" clip-path="url(#clipPath2)" font-family="sans-serif" stroke="none" xml:space="preserve">jvm</text>
      <path fill="none" d="M592.1686 211.983 L594.0831 154.8039" clip-path="url(#clipPath2)"/>
      <path d="M591.9009 219.9785 L597.2997 208.1525 L592.2021 210.9835 L587.3053 207.8179 Z" clip-path="url(#clipPath2)" stroke="none"/>
      <path d="M594.3508 146.8084 L588.9521 158.6344 L594.0497 155.8034 L598.9465 158.969 Z" clip-path="url(#clipPath2)" stroke="none"/>
      <text x="575.3955" font-size="10px" y="187.1992" clip-path="url(#clipPath2)" font-family="sans-serif" stroke="none" xml:space="preserve">scala.js</text>
      <path fill="none" d="M613.8857 214.0044 L668.3913 152.8051" clip-path="url(#clipPath2)"/>
      <path d="M608.565 219.9785 L620.2798 214.3427 L614.5508 213.2576 L612.8122 207.6919 Z" clip-path="url(#clipPath2)" stroke="none"/>
      <path d="M673.712 146.831 L661.9971 152.4668 L667.7262 153.5519 L669.4648 159.1176 Z" clip-path="url(#clipPath2)" stroke="none"/>
      <text x="657.0533" font-size="10px" y="181.3105" clip-path="url(#clipPath2)" font-family="sans-serif" stroke="none" xml:space="preserve">scala </text>
      <text x="656.1598" font-size="10px" y="193.0879" clip-path="url(#clipPath2)" font-family="sans-serif" stroke="none" xml:space="preserve">native</text>
      <path fill="none" d="M591.25 370.5536 L591.25 358.6626" clip-path="url(#clipPath2)"/>
      <path d="M591.25 350.6626 L586.25 362.6626 L591.25 359.6626 L596.25 362.6626 Z" clip-path="url(#clipPath2)" stroke="none"/>
      <path fill="none" d="M510.6878 455.5491 L567.3762 409.4248" clip-path="url(#clipPath2)"/>
      <path d="M504.4823 460.5981 L516.9461 456.903 L511.4634 454.918 L510.6348 449.1462 Z" clip-path="url(#clipPath2)" stroke="none"/>
      <path fill="none" d="M565.2334 453.222 L583.261 409.4136" clip-path="url(#clipPath2)"/>
      <path d="M562.189 460.6201 L571.3794 451.4258 L565.614 452.2973 L562.1318 447.6203 Z" clip-path="url(#clipPath2)" stroke="none"/>
      <path fill="none" d="M618.4922 453.2722 L599.6086 409.4136" clip-path="url(#clipPath2)"/>
      <path d="M621.6559 460.6201 L621.5027 447.621 L618.0967 452.3538 L612.3179 451.5756 Z" clip-path="url(#clipPath2)" stroke="none"/>
      <path fill="none" d="M671.8122 455.5491 L615.1238 409.4248" clip-path="url(#clipPath2)"/>
      <path d="M678.0176 460.5981 L671.8651 449.1462 L671.0365 454.918 L665.5538 456.903 Z" clip-path="url(#clipPath2)" stroke="none"/>
    </g>
  </g>
</svg>
